name ./resultDataOpenSim/trcMotMarkerGrf/sub10/grf-14-08.mot
datacolumns 19
datarows 20
range 1.01200000 1.08800000
endheader

                time	     ground_force_vx	     ground_force_vy	     ground_force_vz	     ground_force_px	     ground_force_py	     ground_force_pz	   l_ground_force_vx	   l_ground_force_vy	   l_ground_force_vz	   l_ground_force_px	   l_ground_force_py	   l_ground_force_pz	     ground_torque_x	     ground_torque_y	     ground_torque_z	   l_ground_torque_x	   l_ground_torque_y	   l_ground_torque_z	
          1.01200000	          0.00000000	          0.00000000	          0.00000000	          0.00000000	          0.00000000	          0.00000000	         -1.07079710	        792.95679524	         26.37510182	          0.06199921	         -0.07500100	         -0.05802102	          0.00000000	          0.00000000	          0.00000000	          0.00000000	         -4.74792524	          0.00000000	
          1.01600000	          0.00000000	          0.00000000	          0.00000000	          0.00000000	          0.00000000	          0.00000000	          3.46564109	        798.64332425	         26.53072106	          0.06253451	         -0.07500100	         -0.05773476	          0.00000000	          0.00000000	          0.00000000	          0.00000000	         -4.89048493	          0.00000000	
          1.02000000	          0.00000000	          0.00000000	          0.00000000	          0.00000000	          0.00000000	          0.00000000	          7.98330536	        804.42488746	         26.52928288	          0.06307091	         -0.07500100	         -0.05746115	          0.00000000	          0.00000000	          0.00000000	          0.00000000	         -5.02806015	          0.00000000	
          1.02400000	          0.00000000	          0.00000000	          0.00000000	          0.00000000	          0.00000000	          0.00000000	         12.44926257	        810.40700905	         26.33757176	          0.06358765	         -0.07500100	         -0.05720064	          0.00000000	          0.00000000	          0.00000000	          0.00000000	         -5.15825241	          0.00000000	
          1.02800000	          0.00000000	          0.00000000	          0.00000000	          0.00000000	          0.00000000	          0.00000000	         16.86969413	        816.63423135	         25.94097899	          0.06405482	         -0.07500100	         -0.05695563	          0.00000000	          0.00000000	          0.00000000	          0.00000000	         -5.27891209	          0.00000000	
          1.03200000	          0.00000000	          0.00000000	          0.00000000	          0.00000000	          0.00000000	          0.00000000	         21.27657082	        823.07941406	         25.35781791	          0.06445198	         -0.07500100	         -0.05671761	          0.00000000	          0.00000000	          0.00000000	          0.00000000	         -5.38853497	          0.00000000	
          1.03600000	          0.00000000	          0.00000000	          0.00000000	          0.00000000	          0.00000000	          0.00000000	         25.71865809	        829.64958557	         24.62613041	          0.06477101	         -0.07500100	         -0.05647446	          0.00000000	          0.00000000	          0.00000000	          0.00000000	         -5.48617617	          0.00000000	
          1.04000000	          0.00000000	          0.00000000	          0.00000000	          0.00000000	          0.00000000	          0.00000000	         30.25742478	        836.19278925	         23.77991455	          0.06501533	         -0.07500100	         -0.05622400	          0.00000000	          0.00000000	          0.00000000	          0.00000000	         -5.57108550	          0.00000000	
          1.04400000	          0.00000000	          0.00000000	          0.00000000	          0.00000000	          0.00000000	          0.00000000	         34.95241825	        842.50565704	         22.84119308	          0.06520827	         -0.07500100	         -0.05597490	          0.00000000	          0.00000000	          0.00000000	          0.00000000	         -5.64234367	          0.00000000	
          1.04800000	          0.00000000	          0.00000000	          0.00000000	          0.00000000	          0.00000000	          0.00000000	         39.84633572	        848.36303460	         21.82340842	          0.06540058	         -0.07500100	         -0.05573054	          0.00000000	          0.00000000	          0.00000000	          0.00000000	         -5.69871556	          0.00000000	
          1.05200000	          0.00000000	          0.00000000	          0.00000000	          0.00000000	          0.00000000	          0.00000000	         44.95996963	        853.56437128	         20.73334982	          0.06564769	         -0.07500100	         -0.05548403	          0.00000000	          0.00000000	          0.00000000	          0.00000000	         -5.73876471	          0.00000000	
          1.05600000	          0.00000000	          0.00000000	          0.00000000	          0.00000000	          0.00000000	          0.00000000	         50.29148203	        857.97766527	         19.57382846	          0.06597895	         -0.07500100	         -0.05522489	          0.00000000	          0.00000000	          0.00000000	          0.00000000	         -5.76109974	          0.00000000	
          1.06000000	          0.00000000	          0.00000000	          0.00000000	          0.00000000	          0.00000000	          0.00000000	         55.82437467	        861.55040250	         18.34455358	          0.06639109	         -0.07500100	         -0.05494346	          0.00000000	          0.00000000	          0.00000000	          0.00000000	         -5.76455915	          0.00000000	
          1.06400000	          0.00000000	          0.00000000	          0.00000000	          0.00000000	          0.00000000	          0.00000000	         61.54765266	        864.25915146	         17.03252038	          0.06685869	         -0.07500100	         -0.05463299	          0.00000000	          0.00000000	          0.00000000	          0.00000000	         -5.74821240	          0.00000000	
          1.06800000	          0.00000000	          0.00000000	          0.00000000	          0.00000000	          0.00000000	          0.00000000	         67.47539036	        866.02941143	         15.59998246	          0.06734832	         -0.07500100	         -0.05429089	          0.00000000	          0.00000000	          0.00000000	          0.00000000	         -5.71120906	          0.00000000	
          1.07200000	          0.00000000	          0.00000000	          0.00000000	          0.00000000	          0.00000000	          0.00000000	         73.65371959	        866.69893573	         13.99212460	          0.06783637	         -0.07500100	         -0.05391998	          0.00000000	          0.00000000	          0.00000000	          0.00000000	         -5.65263194	          0.00000000	
          1.07600000	          0.00000000	          0.00000000	          0.00000000	          0.00000000	          0.00000000	          0.00000000	         80.14504041	        866.04674293	         12.17281274	          0.06831710	         -0.07500100	         -0.05352779	          0.00000000	          0.00000000	          0.00000000	          0.00000000	         -5.57150876	          0.00000000	
          1.08000000	          0.00000000	          0.00000000	          0.00000000	          0.00000000	          0.00000000	          0.00000000	         86.98750559	        863.82544124	         10.15891169	          0.06878599	         -0.07500100	         -0.05312276	          0.00000000	          0.00000000	          0.00000000	          0.00000000	         -5.46703608	          0.00000000	
          1.08400000	          0.00000000	          0.00000000	          0.00000000	          0.00000000	          0.00000000	          0.00000000	         94.16349136	        859.76281315	          8.00933777	          0.06923120	         -0.07500087	         -0.05271833	          0.00000000	          0.00000000	          0.00000000	          0.00000000	         -5.33895312	          0.00000000	
          1.08800000	          0.00000000	          0.00000000	          0.00000000	          0.00000000	          0.00000000	          0.00000000	        101.60697191	        853.58983762	          5.77820051	          0.06964405	         -0.07500015	         -0.05233359	          0.00000000	          0.00000000	          0.00000000	          0.00000000	         -5.18790119	          0.00000000	
